<svg xmlns="http://www.w3.org/2000/svg" width="860" height="500" viewBox="0 0 860 500" font-family="Segoe UI, Arial, sans-serif">
  <rect width="860" height="500" fill="#f4f5f7"/>
  <!-- Navbar -->
  <rect x="0" y="0" width="860" height="56" fill="#e3e6ea"/>
  <circle cx="30" cy="28" r="10" fill="#b9c0c9"/>
  <rect x="48" y="20" width="150" height="16" rx="4" fill="#9aa3ad"/>
  <rect x="320" y="20" width="50" height="14" rx="4" fill="#c2c8cf"/>
  <rect x="384" y="20" width="60" height="14" rx="4" fill="#9aa3ad"/>

  <!-- Título -->
  <rect x="30" y="80" width="280" height="22" rx="4" fill="#7b848e"/>
  <rect x="30" y="110" width="480" height="12" rx="3" fill="#c2c8cf"/>

  <!-- Tabela admin -->
  <rect x="30" y="146" width="800" height="280" rx="10" fill="#ffffff" stroke="#d4d9df"/>
  <rect x="30" y="146" width="800" height="34" rx="10" fill="#eef1f4"/>
  <rect x="48" y="158" width="60" height="10" rx="3" fill="#9aa3ad"/>
  <rect x="300" y="158" width="50" height="10" rx="3" fill="#9aa3ad"/>
  <rect x="420" y="158" width="40" height="10" rx="3" fill="#9aa3ad"/>
  <rect x="520" y="158" width="60" height="10" rx="3" fill="#9aa3ad"/>
  <rect x="700" y="158" width="60" height="10" rx="3" fill="#9aa3ad"/>

  <!-- linha com inputs de placar -->
  <g>
    <rect x="48" y="206" width="180" height="12" rx="3" fill="#7b848e"/>
    <rect x="300" y="206" width="90" height="10" rx="3" fill="#d2d7dd"/>
    <!-- inputs placar -->
    <rect x="500" y="198" width="40" height="28" rx="6" fill="#f0f2f4" stroke="#cdd3d9"/>
    <text x="548" y="218" font-size="14" fill="#aab1b9">x</text>
    <rect x="560" y="198" width="40" height="28" rx="6" fill="#f0f2f4" stroke="#cdd3d9"/>
    <!-- badge + botão -->
    <rect x="650" y="200" width="64" height="18" rx="9" fill="#bdeccd"/>
    <rect x="730" y="198" width="84" height="28" rx="6" fill="#18b16a"/>
  </g>
  <line x1="30" y1="246" x2="830" y2="246" stroke="#eceff2"/>
  <g>
    <rect x="48" y="266" width="180" height="12" rx="3" fill="#7b848e"/>
    <rect x="300" y="266" width="90" height="10" rx="3" fill="#d2d7dd"/>
    <rect x="500" y="258" width="40" height="28" rx="6" fill="#f0f2f4" stroke="#cdd3d9"/>
    <text x="548" y="278" font-size="14" fill="#aab1b9">x</text>
    <rect x="560" y="258" width="40" height="28" rx="6" fill="#f0f2f4" stroke="#cdd3d9"/>
    <rect x="650" y="260" width="64" height="18" rx="9" fill="#bdeccd"/>
    <rect x="730" y="258" width="84" height="28" rx="6" fill="#18b16a"/>
  </g>
  <line x1="30" y1="306" x2="830" y2="306" stroke="#eceff2"/>
  <!-- linha encerrada -->
  <g>
    <rect x="48" y="326" width="180" height="12" rx="3" fill="#7b848e"/>
    <rect x="300" y="326" width="90" height="10" rx="3" fill="#d2d7dd"/>
    <rect x="500" y="320" width="100" height="20" rx="4" fill="#7b848e"/>
    <rect x="650" y="320" width="64" height="18" rx="9" fill="#f2c7c8"/>
  </g>

  <!-- Legenda -->
  <text x="30" y="466" font-size="13" fill="#6b7480">Wireframe — Painel do Administrador (UC07)</text>
  <text x="30" y="486" font-size="11" fill="#94a0ab">Para cada jogo: inputs de placar + botão "Encerrar" (liquida as apostas)</text>
</svg>
