<svg xmlns="http://www.w3.org/2000/svg" width="760" height="520" viewBox="0 0 760 520" font-family="Segoe UI, Arial, sans-serif">
  <rect width="760" height="520" fill="#f4f5f7"/>
  <!-- Navbar -->
  <rect x="0" y="0" width="760" height="56" fill="#e3e6ea"/>
  <circle cx="30" cy="28" r="10" fill="#b9c0c9"/>
  <rect x="48" y="20" width="150" height="16" rx="4" fill="#9aa3ad"/>
  <rect x="600" y="16" width="60" height="24" rx="6" fill="#cfd5db"/>
  <rect x="672" y="16" width="74" height="24" rx="6" fill="#9aa3ad"/>

  <!-- Card -->
  <rect x="230" y="100" width="300" height="340" rx="12" fill="#ffffff" stroke="#d4d9df"/>
  <rect x="258" y="128" width="120" height="22" rx="4" fill="#7b848e"/>
  <rect x="258" y="160" width="244" height="12" rx="3" fill="#c2c8cf"/>

  <!-- Field email -->
  <rect x="258" y="196" width="80" height="12" rx="3" fill="#aab1b9"/>
  <rect x="258" y="212" width="244" height="36" rx="6" fill="#f0f2f4" stroke="#cdd3d9"/>
  <!-- Field senha -->
  <rect x="258" y="262" width="80" height="12" rx="3" fill="#aab1b9"/>
  <rect x="258" y="278" width="244" height="36" rx="6" fill="#f0f2f4" stroke="#cdd3d9"/>
  <!-- Botão -->
  <rect x="258" y="330" width="244" height="40" rx="8" fill="#18b16a"/>
  <rect x="338" y="345" width="84" height="12" rx="3" fill="#ffffff"/>
  <!-- Link cadastro -->
  <rect x="300" y="392" width="160" height="10" rx="3" fill="#b6bdc4"/>

  <!-- Legenda -->
  <text x="30" y="486" font-size="13" fill="#6b7480">Wireframe — Tela de Login (UC02)</text>
  <text x="30" y="506" font-size="11" fill="#94a0ab">Campos: e-mail e senha • Botão "Entrar" • Link para Cadastro</text>
</svg>
